<?xml version="1.0" encoding="UTF-8"?>
<!DOCTYPE svg PUBLIC "-//W3C//DTD SVG 1.1//EN" "http://www.w3.org/Graphics/SVG/1.1/DTD/svg11.dtd">
<svg version="1.2" xmlns="http://www.w3.org/2000/svg" xmlns:xlink="http://www.w3.org/1999/xlink" x="0" y="0" width="423" height="286" viewBox="0 0 423 286">
<style type="text/css"><![CDATA[
text { font:12px Dialog; }
]]></style>
<rect x="-1054" y="-1113" width="2786" height="2512" style="fill:rgb(219,238,244);stroke:none" />
<clipPath id="clip1"><path d="M15,15 L408,15 L408,271 L15,271 Z M23,112 C18.5817184,112 15,115.5817184 15,120 L15,166 C15,170.4182739 18.5817184,174 23,174 L145,174 C149.4182739,174 153,170.4182739 153,166 L153,120 C153,115.5817184 149.4182739,112 145,112 Z M23,112" /></clipPath>
<path d="M108.234726,113.0179749 C116.9165344,61.6377716 131.5049591,35.6317749 152,35 L152,33 C129.3384399,32.3014374 111.486496,58.2954407 98.4441757,110.9820251 C97.2427139,115.8355255 107.4016724,117.9480896 108.234726,113.0179749 Z M108.234726,113.0179749" style="fill:rgb(82,35,83);stroke:none" clip-path="url(#clip1)" />
<clipPath id="clip2"><path d="M15,15 L408,15 L408,271 L15,271 Z M23,112 C18.5817184,112 15,115.5817184 15,120 L15,166 C15,170.4182739 18.5817184,174 23,174 L145,174 C149.4182739,174 153,170.4182739 153,166 L153,120 C153,115.5817184 149.4182739,112 145,112 Z M23,112" /></clipPath>
<path d="M156.5636597,123.1367645 C166.6221313,110.1459351 183.1009216,103.3264771 206,102.6783905 L206,100.6783905 C182.0071106,99.9993439 163.1525574,105.1473541 149.4363403,116.122406 C145.5322876,119.2462387 153.502594,127.0902252 156.5636597,123.1367645 Z M156.5636597,123.1367645" style="fill:rgb(82,35,83);stroke:none" clip-path="url(#clip2)" />
<clipPath id="clip3"><path d="M15,15 L408,15 L408,271 L15,271 Z M23,112 C18.5817184,112 15,115.5817184 15,120 L15,166 C15,170.4182739 18.5817184,174 23,174 L145,174 C149.4182739,174 153,170.4182739 153,166 L153,120 C153,115.5817184 149.4182739,112 145,112 Z M23,112" /></clipPath>
<path d="M149.3669434,170.7597198 C163.5512085,182.7415009 183.0955505,188.3927765 208,187.713562 L208,185.713562 C184.223877,185.0651245 167.1015625,177.7903595 156.6330566,163.8892517 C153.6252136,159.8951416 145.5473175,167.5332031 149.3669434,170.7597198 Z M149.3669434,170.7597198" style="fill:rgb(82,35,83);stroke:none" clip-path="url(#clip3)" />
<clipPath id="clip4"><path d="M15,15 L408,15 L408,271 L15,271 Z M23,112 C18.5817184,112 15,115.5817184 15,120 L15,166 C15,170.4182739 18.5817184,174 23,174 L145,174 C149.4182739,174 153,170.4182739 153,166 L153,120 C153,115.5817184 149.4182739,112 145,112 Z M23,112" /></clipPath>
<path d="M98.0036011,174.9959412 C110.9183121,228.2806702 128.5837708,254.5734711 151,253.8743744 L151,251.8743744 C130.7602844,251.2431641 116.3613586,224.9530487 107.803215,173.0040588 C106.9904633,168.0705566 96.8258438,170.1366425 98.0036011,174.9959412 Z M98.0036011,174.9959412" style="fill:rgb(82,35,83);stroke:none" clip-path="url(#clip4)" />
<clipPath id="clip5"><path d="M14,111 L155,111 L155,176 L14,176 L14,111 Z" /></clipPath>
<path d="M23,112 C18.5817184,112 15,115.5817184 15,120 L15,166 C15,170.4182739 18.5817184,174 23,174 L145,174 C149.4182739,174 153,170.4182739 153,166 L153,120 C153,115.5817184 149.4182739,112 145,112 Z M23,112" style="fill:rgb(81,34,82);stroke:none" clip-path="url(#clip5)" />
<clipPath id="clip6"><path d="M46,127 L123,127 L123,160 L46,160 L46,127 Z" /></clipPath>
<path d="M60.2401962,151.0700073 L50.3964462,151.0700073 L50.3964462,149.0289917 C51.0800438,148.4430389 51.7652588,147.8571167 52.4521103,147.2711792 C53.1389618,146.6852264 53.7786026,146.1025543 54.3710556,145.5231323 C55.6210632,144.3121796 56.4771729,143.3502808 56.939415,142.6373901 C57.4016571,141.9244843 57.6327744,141.1546326 57.6327744,140.3278198 C57.6327744,139.5726013 57.3837509,138.981781 56.885704,138.5553589 C56.3876572,138.1289215 55.6926727,137.9157104 54.8007431,137.9157104 C54.2082901,137.9157104 53.5670242,138.0198669 52.876915,138.2282104 C52.1868057,138.4365387 51.5129852,138.7555389 50.8554306,139.1852417 L50.7577744,139.1852417 L50.7577744,137.1344604 C51.2200165,136.9065857 51.8368721,136.6982574 52.6083603,136.5094604 C53.3798485,136.3206482 54.1269112,136.2262573 54.8495712,136.2262573 C56.3404617,136.2262573 57.5090714,136.5859528 58.3554306,137.3053589 C59.2017899,138.0247498 59.6249619,138.9996796 59.6249619,140.2301636 C59.6249619,140.7835388 59.5549774,141.2994843 59.4150009,141.7780151 C59.2750244,142.2565308 59.0683212,142.7106171 58.7948837,143.1403198 C58.5409775,143.5439606 58.2431259,143.9410858 57.901329,144.3317261 C57.5595322,144.7223511 57.1444931,145.1552887 56.6562119,145.6305542 C55.9595947,146.3141479 55.2402,146.9765778 54.4980087,147.6178589 C53.7558174,148.2591248 53.0624657,148.8531952 52.4179306,149.4000854 L60.2401962,149.4000854 Z M72.9355087,143.7946167 C72.9355087,146.405304 72.5269852,148.3209686 71.7099228,149.541687 C70.8928604,150.7623901 69.6249695,151.3727417 67.9062119,151.3727417 C66.1614075,151.3727417 64.8870087,150.7542572 64.0829697,149.5172729 C63.2789307,148.2802734 62.876915,146.3792572 62.876915,143.8141479 C62.876915,141.2294922 63.2838135,139.3203278 64.0976181,138.0866089 C64.9114227,136.8528748 66.1809387,136.2360229 67.9062119,136.2360229 C69.6510162,136.2360229 70.925415,136.8626404 71.729454,138.1159058 C72.533493,139.3691559 72.9355087,141.2620392 72.9355087,143.7946167 Z M70.3671494,148.2282104 C70.5950165,147.7008514 70.7496338,147.0807495 70.8310165,146.3678589 C70.9123993,145.654953 70.9530869,144.7972107 70.9530869,143.7946167 C70.9530869,142.8050232 70.9123993,141.9456482 70.8310165,141.2164917 C70.7496338,140.4873199 70.5917587,139.8688354 70.3573837,139.3610229 C70.1295166,138.8597107 69.8186493,138.4821167 69.4247665,138.2282104 C69.0308838,137.9742889 68.524704,137.8473511 67.9062119,137.8473511 C67.2942276,137.8473511 66.7880478,137.9742889 66.3876572,138.2282104 C65.9872665,138.4821167 65.6698837,138.8662262 65.4355087,139.3805542 C65.2141571,139.8623199 65.0627899,140.4905701 64.9814072,141.2653198 C64.9000244,142.0400543 64.8593369,142.8896637 64.8593369,143.8141479 C64.8593369,144.8297729 64.8951416,145.6793671 64.9667587,146.3629761 C65.0383759,147.0465698 65.1913681,147.6585388 65.4257431,148.1989136 C65.6405869,148.7067261 65.9449463,149.0940857 66.338829,149.3610229 C66.7327118,149.6279449 67.2551651,149.7614136 67.9062119,149.7614136 C68.5181961,149.7614136 69.026001,149.6344604 69.4296494,149.3805542 C69.8332977,149.1266327 70.1457977,148.7425232 70.3671494,148.2282104 Z M85.6698837,151.0700073 L75.8261337,151.0700073 L75.8261337,149.0289917 C76.5097275,148.4430389 77.1949463,147.8571167 77.8817978,147.2711792 C78.5686493,146.6852264 79.2082901,146.1025543 79.8007431,145.5231323 C81.0507507,144.3121796 81.9068604,143.3502808 82.3691025,142.6373901 C82.8313446,141.9244843 83.0624619,141.1546326 83.0624619,140.3278198 C83.0624619,139.5726013 82.8134384,138.981781 82.3153915,138.5553589 C81.8173447,138.1289215 81.1223602,137.9157104 80.2304306,137.9157104 C79.6379776,137.9157104 78.9967117,138.0198669 78.3066025,138.2282104 C77.6164932,138.4365387 76.9426727,138.7555389 76.2851181,139.1852417 L76.1874619,139.1852417 L76.1874619,137.1344604 C76.649704,136.9065857 77.2665558,136.6982574 78.0380478,136.5094604 C78.8095398,136.3206482 79.5565948,136.2262573 80.2792587,136.2262573 C81.7701492,136.2262573 82.9387589,136.5859528 83.7851181,137.3053589 C84.6314774,138.0247498 85.0546494,138.9996796 85.0546494,140.2301636 C85.0546494,140.7835388 84.9846649,141.2994843 84.8446884,141.7780151 C84.7047119,142.2565308 84.4980087,142.7106171 84.2245712,143.1403198 C83.970665,143.5439606 83.6728134,143.9410858 83.3310165,144.3317261 C82.9892197,144.7223511 82.5741806,145.1552887 82.0858994,145.6305542 C81.3892822,146.3141479 80.6698914,146.9765778 79.9276962,147.6178589 C79.1855011,148.2591248 78.4921494,148.8531952 77.8476181,149.4000854 L85.6698837,149.4000854 Z M98.3651962,143.7946167 C98.3651962,146.405304 97.9566727,148.3209686 97.1396103,149.541687 C96.3225479,150.7623901 95.054657,151.3727417 93.3358994,151.3727417 C91.591095,151.3727417 90.3166962,150.7542572 89.5126572,149.5172729 C88.7086182,148.2802734 88.3066025,146.3792572 88.3066025,143.8141479 C88.3066025,141.2294922 88.713501,139.3203278 89.5273056,138.0866089 C90.3411102,136.8528748 91.6106339,136.2360229 93.3358994,136.2360229 C95.0807037,136.2360229 96.3551025,136.8626404 97.1591415,138.1159058 C97.9631805,139.3691559 98.3651962,141.2620392 98.3651962,143.7946167 Z M95.7968369,148.2282104 C96.024704,147.7008514 96.1793213,147.0807495 96.260704,146.3678589 C96.3420868,145.654953 96.3827744,144.7972107 96.3827744,143.7946167 C96.3827744,142.8050232 96.3420868,141.9456482 96.260704,141.2164917 C96.1793213,140.4873199 96.0214462,139.8688354 95.7870712,139.3610229 C95.5592041,138.8597107 95.2483368,138.4821167 94.854454,138.2282104 C94.4605713,137.9742889 93.9543915,137.8473511 93.3358994,137.8473511 C92.7239151,137.8473511 92.2177353,137.9742889 91.8173447,138.2282104 C91.416954,138.4821167 91.0995712,138.8662262 90.8651962,139.3805542 C90.6438446,139.8623199 90.4924774,140.4905701 90.4110947,141.2653198 C90.3297119,142.0400543 90.2890244,142.8896637 90.2890244,143.8141479 C90.2890244,144.8297729 90.3248291,145.6793671 90.3964462,146.3629761 C90.4680634,147.0465698 90.6210556,147.6585388 90.8554306,148.1989136 C91.0702744,148.7067261 91.3746338,149.0940857 91.7685165,149.3610229 C92.1623993,149.6279449 92.6848526,149.7614136 93.3358994,149.7614136 C93.9478836,149.7614136 94.4556885,149.6344604 94.8593369,149.3805542 C95.2629852,149.1266327 95.5754852,148.7425232 95.7968369,148.2282104 Z M108.0035553,134.7299957 L108.0035553,150.8699951 L100.8035583,150.8699951 L100.8035583,152.2700043 L118.6035538,152.2700043 L118.6035538,150.8699951 L109.483551,150.8699951 L109.483551,142.3099976 L116.9035568,142.3099976 L116.9035568,140.9100037 L109.483551,140.9100037 L109.483551,134.7299957 L108.0035553,134.7299957 Z M119.6835556,151.0700073" style="fill:rgb(255,255,255);stroke:none" clip-path="url(#clip6)" />
<clipPath id="clip7"><path d="M151,14 L235,14 L235,55 L151,55 L151,14 Z" /></clipPath>
<path d="M157,15 C154.2385712,15 152,17.2385712 152,20 L152,48 C152,50.7614288 154.2385712,53 157,53 L228,53 C230.7614288,53 233,50.7614288 233,48 L233,20 C233,17.2385712 230.7614288,15 228,15 Z M157,15" style="fill:rgb(83,81,134);stroke:none" clip-path="url(#clip7)" />
<clipPath id="clip8"><path d="M183,21 L221,21 L221,48 L183,48 L183,21 Z" /></clipPath>
<path d="M192.7720032,30.7000046 L192.7720032,32.2520065 L188.2600098,32.2520065 L188.2600098,36.140007 L186.2600098,36.140007 L186.2600098,37.2120056 L192.0039978,37.2120056 C191.8280029,37.5800018 191.6040039,37.9320068 191.3479919,38.2680054 C190.3880005,39.3560028 188.7080078,40.2200012 186.276001,40.8920059 L186.8999939,41.9000015 C189.3479919,41.2280045 191.1080017,40.2680054 192.1799927,39.052002 C192.6119995,38.5240021 192.9799957,37.9160004 193.2680054,37.2120056 L193.6199951,37.2120056 C194.4519958,39.1960068 196.5639954,40.7480011 199.9720001,41.9000015 L200.5960083,40.8760071 C197.5559998,39.9960022 195.6040039,38.7800064 194.7399902,37.2120056 L200.4679871,37.2120056 L200.4679871,36.140007 L198.4360046,36.140007 L198.4360046,32.2520065 L193.9559937,32.2520065 L193.9559937,30.7000046 L192.7720032,30.7000046 Z M189.3800049,36.140007 L189.3800049,33.3240051 L192.7720032,33.3240051 L192.7720032,33.8040009 C192.7399902,34.6360016 192.6279907,35.4200058 192.4199982,36.140007 L189.3800049,36.140007 Z M193.6360016,36.140007 C193.8119965,35.4360046 193.923996,34.6680069 193.9559937,33.8040009 L193.9559937,33.3240051 L197.3160095,33.3240051 L197.3160095,36.140007 L193.6360016,36.140007 Z M186.3399963,28.5240021 L186.3399963,29.5800018 L190.0679932,29.5800018 L190.0679932,31.1480026 L191.2519989,31.1480026 L191.2519989,29.5800018 L195.4759979,29.5800018 L195.4759979,31.1480026 L196.6600037,31.1480026 L196.6600037,29.5800018 L200.3880005,29.5800018 L200.3880005,28.5240021 L196.6600037,28.5240021 L196.6600037,27.1000061 L195.4759979,27.1000061 L195.4759979,28.5240021 L191.2519989,28.5240021 L191.2519989,27.1000061 L190.0679932,27.1000061 L190.0679932,28.5240021 L186.3399963,28.5240021 Z M207.4920044,27.7720032 L207.4920044,28.8280029 L210.6279907,28.8280029 L210.243988,30.6040039 L207.8760071,30.6040039 L207.8760071,31.6440048 L210.019989,31.6440048 L209.571991,33.7560043 L207.0759888,33.7560043 L207.0759888,34.8280029 L216.7400055,34.8280029 L216.7400055,33.7560043 L215.2359924,33.7560043 L215.2359924,30.6040039 L211.3959961,30.6040039 L211.7799988,28.8280029 L216.2440033,28.8280029 L216.2440033,27.7720032 L207.4920044,27.7720032 Z M210.723999,33.7560043 L211.1719971,31.6440048 L214.0839996,31.6440048 L214.0839996,33.7560043 L210.723999,33.7560043 Z M215.6840057,36.2840042 L208.2919922,36.2840042 L208.2919922,41.8200073 L209.428009,41.8200073 L209.428009,41.052002 L214.5480042,41.052002 L214.5480042,41.8200073 L215.6840057,41.8200073 L215.6840057,36.2840042 Z M209.428009,39.9640045 L209.428009,37.340004 L214.5480042,37.340004 L214.5480042,39.9640045 L209.428009,39.9640045 Z M204.019989,27.340004 L203.2200012,28.1240005 C204.3240051,28.9560013 205.1879883,29.7240067 205.8280029,30.4600067 L206.6279907,29.6760025 C205.923996,28.8920059 205.0440063,28.1080017 204.019989,27.340004 Z M202.0359955,32.012001 L202.0359955,33.1160049 L204.3880005,33.1160049 L204.3880005,39.5 C204.3880005,39.7560043 204.2600098,39.9800034 204.0359955,40.1880035 L204.4840088,41.2120056 C205.5400085,40.4920044 206.5159912,39.6760025 207.4440002,38.7480011 L207.1399994,37.5320053 C206.5480042,38.1240005 206.0039978,38.6520004 205.4920044,39.1000061 L205.4920044,32.012001 L202.0359955,32.012001 Z M217.3639984,40.1880035" style="fill:rgb(255,255,255);stroke:none" clip-path="url(#clip8)" />
<clipPath id="clip9"><path d="M165,25 L183,25 L183,43 L165,43 L165,25 Z" /></clipPath>
<path d="M174,42 C178.4182739,42 182,38.4182777 182,34 C182,29.5817223 178.4182739,26 174,26 C169.5817261,26 166,29.5817223 166,34 C166,38.4182777 169.5817261,42 174,42 Z M178.6095886,28.7318916 C180.0747681,30.0149555 181,31.8994274 181,34 C181,37.8659935 177.8659973,41 174,41 C170.1340027,41 167,37.8659935 167,34 C167,30.1340065 170.1340027,27 174,27 L174,34 L178.6095886,28.7318916 Z M178.6095886,28.7318916" style="fill:rgb(0,209,86);stroke:none" clip-path="url(#clip9)" />
<clipPath id="clip10"><path d="M233,28 L246,28 L246,41 L233,41 L233,28 Z" /></clipPath>
<path d="M243.5,34 C243.5,31.5147171 241.4852753,29.5 239,29.5 C236.5147247,29.5 234.5,31.5147171 234.5,34 C234.5,36.4852829 236.5147247,38.5 239,38.5 C241.4852753,38.5 243.5,36.4852829 243.5,34 Z M243.5,34" style="fill:rgb(250,250,250);stroke:none" clip-path="url(#clip10)" />
<clipPath id="clip11"><path d="M233,28 L246,28 L246,41 L233,41 L233,28 Z" /></clipPath>
<path d="M243.5,34 C243.5,31.5147171 241.4852753,29.5 239,29.5 C236.5147247,29.5 234.5,31.5147171 234.5,34 C234.5,36.4852829 236.5147247,38.5 239,38.5 C241.4852753,38.5 243.5,36.4852829 243.5,34 Z M243.5,34" style="fill:none;stroke:rgb(82,35,83)" clip-path="url(#clip11)" />
<clipPath id="clip12"><path d="M233,28 L246,28 L246,41 L233,41 L233,28 Z" /></clipPath>
<path d="M237,34 L241,34 M239,32 L239,36" style="fill:none;stroke:rgb(48,64,96)" clip-path="url(#clip12)" />
<clipPath id="clip13"><path d="M205,83 L279,83 L279,121 L205,121 L205,83 Z" /></clipPath>
<path d="M211,84 C208.2385712,84 206,86.2385712 206,89 L206,114 C206,116.7614288 208.2385712,119 211,119 L272,119 C274.7614136,119 277,116.7614288 277,114 L277,89 C277,86.2385712 274.7614136,84 272,84 Z M211,84" style="fill:rgb(83,81,134);stroke:none" clip-path="url(#clip13)" />
<clipPath id="clip14"><path d="M219,90 L265,90 L265,114 L219,114 L219,90 Z" /></clipPath>
<path d="M229.9453125,104.875 L228.484375,104.875 L228.484375,103.9453125 C228.3541718,104.0338593 228.1783905,104.157547 227.9570313,104.3164063 C227.735672,104.4752655 227.5208282,104.6015625 227.3125,104.6953125 C227.0677032,104.8151093 226.7864532,104.9153595 226.46875,104.9960938 C226.1510468,105.076828 225.7786407,105.1171875 225.3515625,105.1171875 C224.565094,105.1171875 223.8984375,104.8567734 223.3515625,104.3359375 C222.8046875,103.8151016 222.53125,103.1510468 222.53125,102.34375 C222.53125,101.6822891 222.673172,101.1471405 222.9570313,100.7382813 C223.2408905,100.329422 223.6458282,100.0078125 224.171875,99.7734375 C224.703125,99.5390625 225.3411407,99.3802032 226.0859375,99.296875 C226.8307343,99.2135468 227.6302032,99.1510468 228.484375,99.109375 L228.484375,98.8828125 C228.484375,98.5494766 228.4257813,98.2734375 228.3085938,98.0546875 C228.1914063,97.8359375 228.0234375,97.6640625 227.8046875,97.5390625 C227.5963593,97.4192657 227.3463593,97.3385468 227.0546875,97.296875 C226.7630157,97.2552032 226.4583282,97.234375 226.140625,97.234375 C225.7552032,97.234375 225.3255157,97.2851563 224.8515625,97.3867188 C224.3776093,97.4882813 223.8880157,97.6354141 223.3828125,97.828125 L223.3046875,97.828125 L223.3046875,96.3359375 C223.5911407,96.2578125 224.0052032,96.171875 224.546875,96.078125 C225.0885468,95.984375 225.6223907,95.9375 226.1484375,95.9375 C226.763031,95.9375 227.298172,95.9882813 227.7539063,96.0898438 C228.2096405,96.1914063 228.6041718,96.3645782 228.9375,96.609375 C229.265625,96.8489609 229.515625,97.1588516 229.6875,97.5390625 C229.859375,97.9192734 229.9453125,98.390625 229.9453125,98.953125 Z M228.484375,102.7265625 L228.484375,100.296875 C228.0364532,100.3229218 227.5091248,100.3619843 226.9023438,100.4140625 C226.2955627,100.4661407 225.8151093,100.5416718 225.4609375,100.640625 C225.0390625,100.7604218 224.6979218,100.9466095 224.4375,101.1992188 C224.1770782,101.451828 224.046875,101.7994766 224.046875,102.2421875 C224.046875,102.7421875 224.1979218,103.1184845 224.5,103.3710938 C224.8020782,103.623703 225.2630157,103.75 225.8828125,103.75 C226.3984375,103.75 226.8697968,103.6497421 227.296875,103.4492188 C227.7239532,103.2486954 228.1197968,103.0078125 228.484375,102.7265625 Z M240.84375,100.40625 C240.84375,101.1145859 240.7421875,101.7617188 240.5390625,102.3476563 C240.3359375,102.9335938 240.0494843,103.4296875 239.6796875,103.8359375 C239.3359375,104.2213593 238.9309845,104.5195313 238.4648438,104.7304688 C237.998703,104.9414063 237.5052185,105.046875 236.984375,105.046875 C236.53125,105.046875 236.1210938,104.9973907 235.7539063,104.8984375 C235.3867188,104.7994843 235.0130157,104.6458359 234.6328125,104.4375 L234.6328125,108.09375 L233.1640625,108.09375 L233.1640625,96.1484375 L234.6328125,96.1484375 L234.6328125,97.0625 C235.0234375,96.734375 235.4622345,96.4596405 235.9492188,96.2382813 C236.436203,96.016922 236.955719,95.90625 237.5078125,95.90625 C238.559906,95.90625 239.3789063,96.3033829 239.9648438,97.0976563 C240.5507813,97.8919296 240.84375,98.9947815 240.84375,100.40625 Z M239.328125,100.4453125 C239.328125,99.393219 239.1484375,98.6067734 238.7890625,98.0859375 C238.4296875,97.5651016 237.8776093,97.3046875 237.1328125,97.3046875 C236.7109375,97.3046875 236.2864532,97.3958282 235.859375,97.578125 C235.4322968,97.7604218 235.0234375,98 234.6328125,98.296875 L234.6328125,103.2421875 C235.0494843,103.4296875 235.407547,103.5572968 235.7070313,103.625 C236.0065155,103.6927032 236.3463593,103.7265625 236.7265625,103.7265625 C237.544281,103.7265625 238.1822968,103.4505234 238.640625,102.8984375 C239.0989532,102.3463516 239.328125,101.528656 239.328125,100.4453125 Z M250.3984375,104.875 L248.9296875,104.875 L248.9296875,103.90625 C248.4348907,104.296875 247.9609375,104.5963516 247.5078125,104.8046875 C247.0546875,105.0130234 246.5546875,105.1171875 246.0078125,105.1171875 C245.0911407,105.1171875 244.3776093,104.8372421 243.8671875,104.2773438 C243.3567657,103.7174454 243.1015625,102.8958435 243.1015625,101.8125 L243.1015625,96.1484375 L244.5703125,96.1484375 L244.5703125,101.1171875 C244.5703125,101.5598984 244.5911407,101.938797 244.6328125,102.2539063 C244.6744843,102.5690155 244.7630157,102.8385391 244.8984375,103.0625 C245.0390625,103.2916718 245.2213593,103.4583282 245.4453125,103.5625 C245.6692657,103.6666718 245.9947968,103.71875 246.421875,103.71875 C246.8020782,103.71875 247.217453,103.6197968 247.6679688,103.421875 C248.1184845,103.2239532 248.5390625,102.9713593 248.9296875,102.6640625 L248.9296875,96.1484375 L250.3984375,96.1484375 Z M260.46875,100.6640625 L254.0390625,100.6640625 C254.0390625,101.2005234 254.1197968,101.6679688 254.28125,102.0664063 C254.4427032,102.4648438 254.6640625,102.7916641 254.9453125,103.046875 C255.2161407,103.296875 255.5377655,103.484375 255.9101563,103.609375 C256.2825317,103.734375 256.692688,103.796875 257.140625,103.796875 C257.734375,103.796875 258.3320313,103.6783905 258.9335938,103.4414063 C259.5351563,103.204422 259.963562,102.9713593 260.21875,102.7421875 L260.296875,102.7421875 L260.296875,104.34375 C259.802063,104.5520859 259.296875,104.7265625 258.78125,104.8671875 C258.265625,105.0078125 257.7239685,105.078125 257.15625,105.078125 C255.7083282,105.078125 254.578125,104.686203 253.765625,103.9023438 C252.953125,103.1184845 252.546875,102.0052185 252.546875,100.5625 C252.546875,99.1354065 252.9361877,98.0026093 253.7148438,97.1640625 C254.4934998,96.3255157 255.518219,95.90625 256.7890625,95.90625 C257.966156,95.90625 258.8736877,96.25 259.5117188,96.9375 C260.1497498,97.625 260.46875,98.6015549 260.46875,99.8671875 Z M259.0390625,99.5390625 C259.0338745,98.7682266 258.8398438,98.171875 258.4570313,97.75 C258.0742188,97.328125 257.4921875,97.1171875 256.7109375,97.1171875 C255.924469,97.1171875 255.298172,97.3489532 254.8320313,97.8125 C254.3658905,98.2760468 254.1015625,98.8515625 254.0390625,99.5390625 Z M261.25,104.875" style="fill:rgb(255,255,255);stroke:none" clip-path="url(#clip14)" />
<clipPath id="clip15"><path d="M208,150 L408,150 L408,205 L208,205 Z M213,169 C210.2385712,169 208,171.2385712 208,174 L208,199 C208,201.7614288 210.2385712,204 213,204 L288,204 C290.7614136,204 293,201.7614288 293,199 L293,174 C293,171.2385712 290.7614136,169 288,169 Z M213,169" /></clipPath>
<path d="M306.9998169,186.7810974 L306.9998169,178 C306.9998169,175.7919922 308.7918091,174 310.9998169,174 L314,174" style="fill:none;stroke:rgb(82,35,83);stroke-width:2" clip-path="url(#clip15)" />
<clipPath id="clip16"><path d="M208,150 L408,150 L408,205 L208,205 Z M213,169 C210.2385712,169 208,171.2385712 208,174 L208,199 C208,201.7614288 210.2385712,204 213,204 L288,204 C290.7614136,204 293,201.7614288 293,199 L293,174 C293,171.2385712 290.7614136,169 288,169 Z M213,169" /></clipPath>
<path d="M306.9998169,186.7810974 L306.9998169,196 C306.9998169,198.2080078 308.7918091,200 310.9998169,200 L314,200" style="fill:none;stroke:rgb(82,35,83);stroke-width:2" clip-path="url(#clip16)" />
<clipPath id="clip17"><path d="M207,149 L409,149 L409,206 L207,206 L207,149 Z" /></clipPath>
<path d="M293,186.711441 L306.9998169,186.7810974" style="fill:none;stroke:rgb(82,35,83);stroke-width:2" clip-path="url(#clip17)" />
<clipPath id="clip18"><path d="M207,168 L295,168 L295,206 L207,206 L207,168 Z" /></clipPath>
<path d="M213,169 C210.2385712,169 208,171.2385712 208,174 L208,199 C208,201.7614288 210.2385712,204 213,204 L288,204 C290.7614136,204 293,201.7614288 293,199 L293,174 C293,171.2385712 290.7614136,169 288,169 Z M213,169" style="fill:rgb(83,81,134);stroke:none" clip-path="url(#clip18)" />
<clipPath id="clip19"><path d="M221,175 L281,175 L281,199 L221,199 L221,175 Z" /></clipPath>
<path d="M232.3398438,190.4335938 C232.3398438,191.9127655 232.0039063,192.9986877 231.3320313,193.6914063 C230.6601563,194.3841248 229.6263123,194.7304688 228.2304688,194.7304688 C227.766922,194.7304688 227.3151093,194.6979218 226.875,194.6328125 C226.4348907,194.5677032 226.001297,194.4752655 225.5742188,194.3554688 L225.5742188,192.8554688 L225.6523438,192.8554688 C225.891922,192.9492188 226.2721252,193.065094 226.7929688,193.203125 C227.3138123,193.341156 227.8346252,193.4101563 228.3554688,193.4101563 C228.8554688,193.4101563 229.2695313,193.3502655 229.5976563,193.2304688 C229.9257813,193.110672 230.1809845,192.9440155 230.3632813,192.7304688 C230.545578,192.5273438 230.6757813,192.2825623 230.7539063,191.9960938 C230.8320313,191.7096252 230.8710938,191.389328 230.8710938,191.0351563 L230.8710938,190.2382813 C230.4283905,190.592453 230.0052032,190.8567657 229.6015625,191.03125 C229.1979218,191.2057343 228.6835938,191.2929688 228.0585938,191.2929688 C227.016922,191.2929688 226.1901093,190.9166718 225.578125,190.1640625 C224.9661407,189.4114532 224.6601563,188.3502655 224.6601563,186.9804688 C224.6601563,186.2304688 224.765625,185.5833435 224.9765625,185.0390625 C225.1875,184.4947815 225.4752655,184.0247498 225.8398438,183.6289063 C226.1783905,183.2591095 226.5898438,182.9713593 227.0742188,182.765625 C227.5585938,182.5598907 228.0403595,182.4570313 228.5195313,182.4570313 C229.0247345,182.4570313 229.4479218,182.5078125 229.7890625,182.609375 C230.1302032,182.7109375 230.4908905,182.8658752 230.8710938,183.0742188 L230.9648438,182.6992188 L232.3398438,182.6992188 Z M230.8710938,189.0273438 L230.8710938,184.2695313 C230.4804688,184.0924377 230.1171875,183.9661407 229.78125,183.890625 C229.4453125,183.8151093 229.110672,183.7773438 228.7773438,183.7773438 C227.970047,183.7773438 227.3346405,184.048172 226.8710938,184.5898438 C226.407547,185.1315155 226.1757813,185.9179688 226.1757813,186.9492188 C226.1757813,187.9283905 226.3476563,188.6705627 226.6914063,189.1757813 C227.0351563,189.6809998 227.6054688,189.9335938 228.4023438,189.9335938 C228.829422,189.9335938 229.2578125,189.8515625 229.6875,189.6875 C230.1171875,189.5234375 230.5117188,189.3033905 230.8710938,189.0273438 Z M242.6992188,187.0664063 C242.6992188,188.4882813 242.3346405,189.610672 241.6054688,190.4335938 C240.876297,191.2565155 239.8997498,191.6679688 238.6757813,191.6679688 C237.4414063,191.6679688 236.4609375,191.2565155 235.734375,190.4335938 C235.0078125,189.610672 234.6445313,188.4882813 234.6445313,187.0664063 C234.6445313,185.6445313 235.0078125,184.5208435 235.734375,183.6953125 C236.4609375,182.8697815 237.4414063,182.4570313 238.6757813,182.4570313 C239.8997498,182.4570313 240.876297,182.8697815 241.6054688,183.6953125 C242.3346405,184.5208435 242.6992188,185.6445313 242.6992188,187.0664063 Z M241.1835938,187.0664063 C241.1835938,185.9361877 240.9622345,185.0963593 240.5195313,184.546875 C240.076828,183.9973907 239.4622498,183.7226563 238.6757813,183.7226563 C237.8789063,183.7226563 237.2604218,183.9973907 236.8203125,184.546875 C236.3802032,185.0963593 236.1601563,185.9361877 236.1601563,187.0664063 C236.1601563,188.1601563 236.3815155,188.9895782 236.8242188,189.5546875 C237.266922,190.1197968 237.8841095,190.4023438 238.6757813,190.4023438 C239.4570313,190.4023438 240.0703125,190.122406 240.515625,189.5625 C240.9609375,189.002594 241.1835938,188.170578 241.1835938,187.0664063 Z M246.7460938,191.4257813 L245.2773438,191.4257813 L245.2773438,179.2695313 L246.7460938,179.2695313 Z M256.0429688,191.4257813 L254.5820313,191.4257813 L254.5820313,190.4960938 C254.451828,190.5846405 254.2760468,190.7083282 254.0546875,190.8671875 C253.8333282,191.0260468 253.6184845,191.1523438 253.4101563,191.2460938 C253.1653595,191.3658905 252.8841095,191.4661407 252.5664063,191.546875 C252.248703,191.6276093 251.876297,191.6679688 251.4492188,191.6679688 C250.6627502,191.6679688 249.9960938,191.4075623 249.4492188,190.8867188 C248.9023438,190.3658752 248.6289063,189.701828 248.6289063,188.8945313 C248.6289063,188.2330627 248.7708282,187.6979218 249.0546875,187.2890625 C249.3385468,186.8802032 249.7434845,186.5585938 250.2695313,186.3242188 C250.8007813,186.0898438 251.438797,185.9309845 252.1835938,185.8476563 C252.9283905,185.764328 253.7278595,185.701828 254.5820313,185.6601563 L254.5820313,185.4335938 C254.5820313,185.1002502 254.5234375,184.8242188 254.40625,184.6054688 C254.2890625,184.3867188 254.1210938,184.2148438 253.9023438,184.0898438 C253.6940155,183.970047 253.4440155,183.889328 253.1523438,183.8476563 C252.860672,183.8059845 252.5559845,183.7851563 252.2382813,183.7851563 C251.8528595,183.7851563 251.423172,183.8359375 250.9492188,183.9375 C250.4752655,184.0390625 249.985672,184.1861877 249.4804688,184.3789063 L249.4023438,184.3789063 L249.4023438,182.8867188 C249.688797,182.8085938 250.1028595,182.7226563 250.6445313,182.6289063 C251.186203,182.5351563 251.720047,182.4882813 252.2460938,182.4882813 C252.8606873,182.4882813 253.3958282,182.5390625 253.8515625,182.640625 C254.3072968,182.7421875 254.701828,182.9153595 255.0351563,183.1601563 C255.3632813,183.3997498 255.6132813,183.7096252 255.7851563,184.0898438 C255.9570313,184.4700623 256.0429688,184.9414063 256.0429688,185.5039063 Z M254.5820313,189.2773438 L254.5820313,186.8476563 C254.1341095,186.873703 253.606781,186.9127655 253,186.9648438 C252.393219,187.016922 251.9127655,187.092453 251.5585938,187.1914063 C251.1367188,187.311203 250.795578,187.4973907 250.5351563,187.75 C250.2747345,188.0026093 250.1445313,188.3502502 250.1445313,188.7929688 C250.1445313,189.2929688 250.295578,189.6692657 250.5976563,189.921875 C250.8997345,190.1744843 251.360672,190.3007813 251.9804688,190.3007813 C252.4960938,190.3007813 252.967453,190.200531 253.3945313,190 C253.8216095,189.799469 254.217453,189.5585938 254.5820313,189.2773438 Z M266.5585938,191.4257813 L265.0898438,191.4257813 L265.0898438,186.4570313 C265.0898438,186.0559845 265.0664063,185.6796875 265.0195313,185.328125 C264.9726563,184.9765625 264.8867188,184.701828 264.7617188,184.5039063 C264.6315308,184.2851563 264.4440308,184.1223907 264.1992188,184.015625 C263.9544067,183.9088593 263.6367188,183.8554688 263.2460938,183.8554688 C262.8450317,183.8554688 262.4257813,183.954422 261.9882813,184.1523438 C261.5507813,184.3502655 261.1315308,184.6028595 260.7304688,184.9101563 L260.7304688,191.4257813 L259.2617188,191.4257813 L259.2617188,182.6992188 L260.7304688,182.6992188 L260.7304688,183.6679688 C261.1887817,183.2877502 261.6627808,182.9908905 262.1523438,182.7773438 C262.6419067,182.563797 263.1445313,182.4570313 263.6601563,182.4570313 C264.6028748,182.4570313 265.3215942,182.7408752 265.8164063,183.3085938 C266.3112183,183.8763123 266.5585938,184.6940002 266.5585938,185.7617188 Z M276.3398438,190.4335938 C276.3398438,191.9127655 276.0039063,192.9986877 275.3320313,193.6914063 C274.6601563,194.3841248 273.6263123,194.7304688 272.2304688,194.7304688 C271.7669067,194.7304688 271.3151245,194.6979218 270.875,194.6328125 C270.4348755,194.5677032 270.0012817,194.4752655 269.5742188,194.3554688 L269.5742188,192.8554688 L269.6523438,192.8554688 C269.8919067,192.9492188 270.2721252,193.065094 270.7929688,193.203125 C271.3138123,193.341156 271.8346252,193.4101563 272.3554688,193.4101563 C272.8554688,193.4101563 273.2695313,193.3502655 273.5976563,193.2304688 C273.9257813,193.110672 274.1809692,192.9440155 274.3632813,192.7304688 C274.5455933,192.5273438 274.6757813,192.2825623 274.7539063,191.9960938 C274.8320313,191.7096252 274.8710938,191.389328 274.8710938,191.0351563 L274.8710938,190.2382813 C274.4284058,190.592453 274.005188,190.8567657 273.6015625,191.03125 C273.197937,191.2057343 272.6835938,191.2929688 272.0585938,191.2929688 C271.0169067,191.2929688 270.1901245,190.9166718 269.578125,190.1640625 C268.9661255,189.4114532 268.6601563,188.3502655 268.6601563,186.9804688 C268.6601563,186.2304688 268.765625,185.5833435 268.9765625,185.0390625 C269.1875,184.4947815 269.4752808,184.0247498 269.8398438,183.6289063 C270.1784058,183.2591095 270.5898438,182.9713593 271.0742188,182.765625 C271.5585938,182.5598907 272.0403442,182.4570313 272.5195313,182.4570313 C273.0247192,182.4570313 273.447937,182.5078125 273.7890625,182.609375 C274.130188,182.7109375 274.4909058,182.8658752 274.8710938,183.0742188 L274.9648438,182.6992188 L276.3398438,182.6992188 Z M274.8710938,189.0273438 L274.8710938,184.2695313 C274.4804688,184.0924377 274.1171875,183.9661407 273.78125,183.890625 C273.4453125,183.8151093 273.1106567,183.7773438 272.7773438,183.7773438 C271.9700317,183.7773438 271.3346558,184.048172 270.8710938,184.5898438 C270.4075317,185.1315155 270.1757813,185.9179688 270.1757813,186.9492188 C270.1757813,187.9283905 270.3476563,188.6705627 270.6914063,189.1757813 C271.0351563,189.6809998 271.6054688,189.9335938 272.4023438,189.9335938 C272.8294067,189.9335938 273.2578125,189.8515625 273.6875,189.6875 C274.1171875,189.5234375 274.5117188,189.3033905 274.8710938,189.0273438 Z M277.7851563,191.4257813" style="fill:rgb(255,255,255);stroke:none" clip-path="url(#clip19)" />
<clipPath id="clip20"><path d="M293,181 L306,181 L306,194 L293,194 L293,181 Z" /></clipPath>
<path d="M303.5,187 C303.5,184.5147095 301.4852905,182.5 299,182.5 C296.5147095,182.5 294.5,184.5147095 294.5,187 C294.5,189.4852905 296.5147095,191.5 299,191.5 C301.4852905,191.5 303.5,189.4852905 303.5,187 Z M303.5,187" style="fill:rgb(250,250,250);stroke:none" clip-path="url(#clip20)" />
<clipPath id="clip21"><path d="M293,181 L306,181 L306,194 L293,194 L293,181 Z" /></clipPath>
<path d="M303.5,187 C303.5,184.5147095 301.4852905,182.5 299,182.5 C296.5147095,182.5 294.5,184.5147095 294.5,187 C294.5,189.4852905 296.5147095,191.5 299,191.5 C301.4852905,191.5 303.5,189.4852905 303.5,187 Z M303.5,187" style="fill:none;stroke:rgb(82,35,83)" clip-path="url(#clip21)" />
<clipPath id="clip22"><path d="M293,181 L306,181 L306,194 L293,194 L293,181 Z" /></clipPath>
<path d="M297,187 L301,187" style="fill:none;stroke:rgb(150,160,200)" clip-path="url(#clip22)" />
<clipPath id="clip23"><path d="M312,149 L409,149 L409,176 L312,176 L312,149 Z" /></clipPath>
<path d="M314,174 L406,174 Z M314,174" style="fill:none;stroke:rgb(82,35,83);stroke-width:2" clip-path="url(#clip23)" />
<clipPath id="clip24"><path d="M335,153 L398,153 L398,172 L335,172 L335,153 Z" /></clipPath>
<path d="M342.7334595,164.9771729 C342.7334595,165.9016571 342.5235291,166.5803528 342.1035767,167.0133057 C341.6836548,167.4462433 341.0375061,167.6627197 340.1651001,167.6627197 C339.8753967,167.6627197 339.5930176,167.6423645 339.3179321,167.6016846 C339.0428772,167.5609894 338.7718811,167.5032043 338.5049438,167.4283447 L338.5049438,166.4908447 L338.553772,166.4908447 C338.7035217,166.5494385 338.9411621,166.6218567 339.2666626,166.7081299 C339.5921936,166.7943878 339.9177246,166.8375244 340.2432251,166.8375244 C340.5557556,166.8375244 340.8145142,166.8000793 341.0195923,166.7252197 C341.2247009,166.6503448 341.3841858,166.5461731 341.4981079,166.4127197 C341.6120605,166.2857666 341.6934204,166.1327667 341.7422485,165.9537354 C341.7911072,165.7746887 341.8154907,165.5744934 341.8154907,165.3531494 L341.8154907,164.8551025 C341.5388184,165.0764465 341.2743225,165.2416534 341.0220337,165.350708 C340.7697754,165.4597473 340.4483337,165.5142822 340.0576782,165.5142822 C339.4066467,165.5142822 338.8898926,165.2790833 338.5073853,164.8087158 C338.1249084,164.3383331 337.9336548,163.6750946 337.9336548,162.8189697 C337.9336548,162.3502197 337.9995728,161.945755 338.1314087,161.6055908 C338.2632446,161.2654114 338.4431152,160.9716339 338.6709595,160.7242432 C338.8825684,160.4931183 339.1397095,160.3132629 339.4424438,160.1846924 C339.7451782,160.0561066 340.0462952,159.9918213 340.3457642,159.9918213 C340.6615295,159.9918213 340.9260254,160.0235596 341.1392212,160.0870361 C341.3524475,160.1505127 341.5778809,160.247345 341.8154907,160.3775635 L341.8740845,160.1431885 L342.7334595,160.1431885 Z M341.8154907,164.0982666 L341.8154907,161.1246338 C341.5713501,161.0139465 341.3443298,160.9350128 341.1343384,160.8878174 C340.9243774,160.8406067 340.7152405,160.8170166 340.506897,160.8170166 C340.0023499,160.8170166 339.6052246,160.9862823 339.3154907,161.3248291 C339.0257874,161.6633606 338.8809204,162.1549072 338.8809204,162.7994385 C338.8809204,163.4114075 338.9883423,163.8752747 339.203186,164.19104 C339.4180298,164.5067902 339.7744751,164.6646729 340.272522,164.6646729 C340.5394592,164.6646729 340.8071899,164.6134033 341.0757446,164.5108643 C341.3443298,164.4083252 341.5908813,164.2707825 341.8154907,164.0982666 Z M348.9580688,162.8726807 C348.9580688,163.7613525 348.7302246,164.4628448 348.2744751,164.9771729 C347.8187561,165.4914856 347.2084045,165.7486572 346.4434204,165.7486572 C345.671936,165.7486572 345.0591736,165.4914856 344.6050415,164.9771729 C344.1509399,164.4628448 343.9238892,163.7613525 343.9238892,162.8726807 C343.9238892,161.9839935 344.1509399,161.2816925 344.6050415,160.7657471 C345.0591736,160.2497864 345.671936,159.9918213 346.4434204,159.9918213 C347.2084045,159.9918213 347.8187561,160.2497864 348.2744751,160.7657471 C348.7302246,161.2816925 348.9580688,161.9839935 348.9580688,162.8726807 Z M348.0108032,162.8726807 C348.0108032,162.1662903 347.872467,161.6413879 347.5957642,161.2979736 C347.3190918,160.9545441 346.934967,160.7828369 346.4434204,160.7828369 C345.9453735,160.7828369 345.5588379,160.9545441 345.2837524,161.2979736 C345.0086975,161.6413879 344.8711548,162.1662903 344.8711548,162.8726807 C344.8711548,163.5562744 345.0095215,164.0746613 345.2861938,164.4278564 C345.5628967,164.7810364 345.9486389,164.9576416 346.4434204,164.9576416 C346.9317322,164.9576416 347.3150024,164.7826691 347.5933228,164.4327393 C347.8716736,164.0827942 348.0108032,163.5627899 348.0108032,162.8726807 Z M351.2373657,165.59729 L350.319397,165.59729 L350.319397,157.9996338 L351.2373657,157.9996338 Z M357.5479126,165.59729 L356.6348267,165.59729 L356.6348267,165.0162354 C356.5534668,165.0715637 356.4436035,165.14888 356.3052368,165.2481689 C356.1669006,165.3474426 356.0326233,165.4263916 355.9024048,165.4849854 C355.7494202,165.559845 355.5736389,165.6225128 355.375061,165.6729736 C355.1765137,165.7234192 354.9437561,165.7486572 354.6768188,165.7486572 C354.1853027,165.7486572 353.7686462,165.5858917 353.4268188,165.260376 C353.085022,164.934845 352.9141235,164.5198059 352.9141235,164.0152588 C352.9141235,163.6018372 353.0028381,163.2673645 353.1802368,163.0118408 C353.357666,162.7563019 353.6107483,162.5552979 353.9395142,162.4088135 C354.2715759,162.2623291 354.6703186,162.1630402 355.1358032,162.1109619 C355.6013184,162.0588684 356.1009827,162.0198059 356.6348267,161.9937744 L356.6348267,161.8521729 C356.6348267,161.6438293 356.5982361,161.4713135 356.5249634,161.3345947 C356.4517212,161.197876 356.3467712,161.0904541 356.210022,161.0123291 C356.079834,160.9374542 355.923584,160.8869934 355.741272,160.8609619 C355.5589905,160.8349152 355.3685608,160.8218994 355.1699829,160.8218994 C354.9291077,160.8218994 354.660553,160.8536377 354.3643188,160.9171143 C354.0681152,160.9805908 353.7621155,161.0725403 353.4463501,161.1929932 L353.397522,161.1929932 L353.397522,160.260376 C353.5765686,160.2115479 353.8353577,160.1578369 354.1738892,160.0992432 C354.5124512,160.0406494 354.8460999,160.0113525 355.1748657,160.0113525 C355.5589905,160.0113525 355.8934631,160.0430908 356.1782837,160.1065674 C356.4631348,160.1700439 356.7097168,160.2782745 356.9180298,160.4312744 C357.1231384,160.5810089 357.2793579,160.7746887 357.3867798,161.0123291 C357.4942322,161.2499542 357.5479126,161.5445557 357.5479126,161.8961182 Z M356.6348267,164.2545166 L356.6348267,162.7359619 C356.3548889,162.7522278 356.0252991,162.7766418 355.6460571,162.8092041 C355.2668457,162.8417511 354.9665527,162.8889465 354.7451782,162.9508057 C354.4815063,163.0256653 354.2683105,163.1420441 354.1055298,163.2999268 C353.9427795,163.4577942 353.8613892,163.6750793 353.8613892,163.9517822 C353.8613892,164.2642822 353.9558105,164.4994659 354.1445923,164.6573486 C354.3334045,164.8152161 354.6214905,164.894165 355.0088501,164.894165 C355.3311462,164.894165 355.6257324,164.8314972 355.8926392,164.7061768 C356.1595764,164.5808411 356.4069824,164.4302979 356.6348267,164.2545166 Z M363.8701782,165.59729 L362.9522095,165.59729 L362.9522095,162.4918213 C362.9522095,162.2411652 362.9375916,162.0059814 362.9082642,161.7862549 C362.8789673,161.5665283 362.8252869,161.3948059 362.7471313,161.2711182 C362.6657715,161.1343994 362.548584,161.0326691 362.3955688,160.9659424 C362.2425842,160.8992004 362.0440369,160.8658447 361.7998657,160.8658447 C361.5492249,160.8658447 361.2872009,160.9276886 361.0137329,161.0513916 C360.7402954,161.1750793 360.4782715,161.332962 360.2276001,161.5250244 L360.2276001,165.59729 L359.3096313,165.59729 L359.3096313,160.1431885 L360.2276001,160.1431885 L360.2276001,160.7486572 C360.5140686,160.5110168 360.8103027,160.32547 361.116272,160.1920166 C361.4222717,160.058548 361.7363892,159.9918213 362.0586548,159.9918213 C362.6478577,159.9918213 363.0970764,160.16922 363.406311,160.5240479 C363.7155762,160.8788605 363.8701782,161.3899231 363.8701782,162.057251 Z M369.7334595,164.9771729 C369.7334595,165.9016571 369.5235291,166.5803528 369.1035767,167.0133057 C368.6836548,167.4462433 368.0375061,167.6627197 367.1651001,167.6627197 C366.8753967,167.6627197 366.5930176,167.6423645 366.3179321,167.6016846 C366.0428772,167.5609894 365.7718811,167.5032043 365.5049438,167.4283447 L365.5049438,166.4908447 L365.553772,166.4908447 C365.7035217,166.5494385 365.9411621,166.6218567 366.2666626,166.7081299 C366.5921936,166.7943878 366.9177246,166.8375244 367.2432251,166.8375244 C367.5557556,166.8375244 367.8145142,166.8000793 368.0195923,166.7252197 C368.2247009,166.6503448 368.3841858,166.5461731 368.4981079,166.4127197 C368.6120605,166.2857666 368.6934204,166.1327667 368.7422485,165.9537354 C368.7911072,165.7746887 368.8154907,165.5744934 368.8154907,165.3531494 L368.8154907,164.8551025 C368.5388184,165.0764465 368.2743225,165.2416534 368.0220337,165.350708 C367.7697754,165.4597473 367.4483337,165.5142822 367.0576782,165.5142822 C366.4066467,165.5142822 365.8898926,165.2790833 365.5073853,164.8087158 C365.1249084,164.3383331 364.9336548,163.6750946 364.9336548,162.8189697 C364.9336548,162.3502197 364.9995728,161.945755 365.1314087,161.6055908 C365.2632751,161.2654114 365.4431152,160.9716339 365.6709595,160.7242432 C365.8825684,160.4931183 366.1397095,160.3132629 366.4424438,160.1846924 C366.7452087,160.0561066 367.0462952,159.9918213 367.3457642,159.9918213 C367.6615295,159.9918213 367.9260254,160.0235596 368.1392212,160.0870361 C368.3524475,160.1505127 368.5778809,160.247345 368.8154907,160.3775635 L368.8740845,160.1431885 L369.7334595,160.1431885 Z M368.8154907,164.0982666 L368.8154907,161.1246338 C368.5713501,161.0139465 368.3443298,160.9350128 368.1343384,160.8878174 C367.9243774,160.8406067 367.7152405,160.8170166 367.506897,160.8170166 C367.0023499,160.8170166 366.6052246,160.9862823 366.3154907,161.3248291 C366.0257874,161.6633606 365.8809204,162.1549072 365.8809204,162.7994385 C365.8809204,163.4114075 365.9883423,163.8752747 366.203186,164.19104 C366.4180603,164.5067902 366.7744751,164.6646729 367.272522,164.6646729 C367.5394592,164.6646729 367.8071899,164.6134033 368.0757446,164.5108643 C368.3443298,164.4083252 368.5908813,164.2707825 368.8154907,164.0982666 Z M382.7763367,161.6572876 L379.4863281,162.0572815 L379.4863281,161.2272797 C380.7263184,161.1072845 381.8063354,160.9072876 382.7363281,160.6472778 L382.406311,160.0772858 C380.5963135,160.547287 378.3163147,160.7872925 375.5763245,160.7872925 L375.7863159,161.3972778 C376.8463135,161.3972778 377.8363342,161.3572845 378.7563171,161.2872925 L378.7563171,162.1472778 L375.4863281,162.547287 L375.5763245,163.1972809 L378.7563171,162.8072815 L378.7563171,163.7672882 L375.156311,164.2472839 L375.2663269,164.8972778 L378.7563171,164.4272919 L378.7563171,165.3372803 C378.7563171,166.0372925 379.0863342,166.3872833 379.7463379,166.3872833 L382.5963135,166.3872833 C383.0063171,166.3872833 383.3063354,166.3072815 383.4963379,166.1472778 C383.7063293,165.9772797 383.8463135,165.4672852 383.9263306,164.6272888 L383.2363281,164.4072876 C383.1963196,165.0272827 383.1063232,165.4072876 382.9763184,165.5372925 C382.8763123,165.6372833 382.7063293,165.6972809 382.4763184,165.6972809 L379.9763184,165.6972809 C379.6463318,165.6972809 379.4863281,165.5272827 379.4863281,165.1872864 L379.4863281,164.3272858 L383.5663147,163.7772827 L383.4563293,163.1272888 L379.4863281,163.6672821 L379.4863281,162.7172852 L382.8763123,162.3072815 L382.7763367,161.6572876 Z M376.3463135,158.9672852 L377.0663147,158.9672852 C377.3463135,159.4072876 377.5963135,159.8672791 377.7963257,160.3372803 L378.4663391,160.0872803 C378.3063354,159.7472839 378.0963135,159.3672791 377.8263245,158.9672852 L379.3463135,158.9672852 L379.3463135,158.3272858 L376.656311,158.3272858 C376.7563171,158.0772858 376.8563232,157.8072815 376.9463196,157.5272827 L376.2563171,157.3772888 C375.9863281,158.2172852 375.5563354,158.9972839 374.9763184,159.6972809 L375.6063232,160.0872803 C375.886322,159.7472839 376.1263123,159.3672791 376.3463135,158.9672852 Z M380.4963379,158.9272919 L381.3063354,158.9272919 C381.5463257,159.2572937 381.7463379,159.59729 381.9263306,159.9472809 L382.5663147,159.7072906 C382.4363403,159.4672852 382.2663269,159.2072906 382.0663147,158.9272919 L383.7563171,158.9272919 L383.7563171,158.2872925 L380.7663269,158.2872925 C380.8563232,158.0372925 380.9463196,157.7672882 381.0363159,157.4872894 L380.3363342,157.3372803 C380.1063232,158.1972809 379.7363281,158.9772797 379.2163391,159.6972809 L379.8263245,160.0772858 C380.0663147,159.7272797 380.2963257,159.34729 380.4963379,158.9272919 Z M394.0663147,163.8172913 L393.3563232,163.5772858 C393.3063354,164.3772888 393.2363281,164.9072876 393.136322,165.1772919 C393.0263367,165.4472809 392.7763367,165.5872803 392.386322,165.5872803 L390.2063293,165.5872803 C389.866333,165.5772858 389.6963196,165.3972778 389.6963196,165.0572815 L389.6963196,161.6372833 L393.2463379,161.6372833 L393.2463379,157.9172821 L388.5163269,157.9172821 L388.5163269,158.6172791 L392.5563354,158.6172791 L392.5563354,160.9472809 L388.9963379,160.9472809 L388.9963379,165.3172913 C388.9963379,165.9572906 389.3063354,166.2772827 389.9263306,166.2772827 L392.5163269,166.2772827 C393.0763245,166.2772827 393.4563293,166.1172791 393.6463318,165.8172913 C393.8363342,165.5072937 393.9763184,164.8372803 394.0663147,163.8172913 Z M386.0263367,157.5272827 L385.5263367,158.0172882 C386.2463379,158.5572815 386.8263245,159.0772858 387.2463379,159.5672913 L387.7363281,159.0672913 C387.2763367,158.547287 386.7063293,158.0372925 386.0263367,157.5272827 Z M384.8563232,160.4872894 L384.8563232,161.1772919 L386.3263245,161.1772919 L386.3263245,165.1672821 C386.3263245,165.3272858 386.2563171,165.4672852 386.116333,165.5872803 L386.3963318,166.2372894 C387.116333,165.7772827 387.8063354,165.2672882 388.4463196,164.6872864 L388.2663269,163.9272919 C387.8263245,164.3272858 387.406311,164.6872864 387.0163269,164.9872894 L387.0163269,160.4872894 L384.8563232,160.4872894 Z M394.406311,165.59729" style="fill:rgb(82,35,83);stroke:none" clip-path="url(#clip24)" />
<clipPath id="clip25"><path d="M323,156 L335,156 L335,168 L323,168 L323,156 Z" /></clipPath>
<path d="M329.875,167.125 C332.6364136,167.125 334.875,164.8864288 334.875,162.125 C334.875,159.3635712 332.6364136,157.125 329.875,157.125 C327.1135864,157.125 324.875,159.3635712 324.875,162.125 C324.875,164.8864288 327.1135864,167.125 329.875,167.125 Z M332.9685974,165.2185974 C332.1768799,166.0103149 331.0831299,166.5 329.875,166.5 C327.4587402,166.5 325.5,164.5412445 325.5,162.125 C325.5,159.7087555 327.4587402,157.75 329.875,157.75 L329.875,162.125 L332.9685974,165.2185974 Z M332.9685974,165.2185974" style="fill:rgb(0,209,86);stroke:none" clip-path="url(#clip25)" />
<clipPath id="clip26"><path d="M312,175 L393,175 L393,202 L312,202 L312,175 Z" /></clipPath>
<path d="M314,200 L390,200 Z M314,200" style="fill:none;stroke:rgb(82,35,83);stroke-width:2" clip-path="url(#clip26)" />
<clipPath id="clip27"><path d="M323,179 L382,179 L382,198 L323,198 L323,179 Z" /></clipPath>
<path d="M330.9084778,190.8321686 C330.9084778,191.7566528 330.6985168,192.4353638 330.278595,192.8683014 C329.8586731,193.301239 329.2125244,193.5177155 328.3401184,193.5177155 C328.050415,193.5177155 327.7680054,193.4973755 327.4929504,193.4566803 C327.2178955,193.4159851 326.9468994,193.3582153 326.6799622,193.2833405 L326.6799622,192.3458405 L326.7287903,192.3458405 C326.87854,192.4044342 327.1161499,192.4768677 327.4416809,192.5631256 C327.7672119,192.6493835 328.0927124,192.6925201 328.4182434,192.6925201 C328.7307434,192.6925201 328.9895325,192.6550903 329.1946106,192.5802155 C329.3996887,192.5053406 329.5592041,192.4011841 329.6731262,192.2677155 C329.7870483,192.1407623 329.8684387,191.9877625 329.9172668,191.8087311 C329.966095,191.6296997 329.990509,191.4295044 329.990509,191.2081451 L329.990509,190.7100983 C329.7138062,190.9314575 329.4493408,191.0966492 329.197052,191.2057037 C328.9447632,191.3147583 328.6233215,191.369278 328.2326965,191.369278 C327.581665,191.369278 327.0648804,191.1340942 326.6824036,190.6637115 C326.2999268,190.1933289 326.1086731,189.5300903 326.1086731,188.6739655 C326.1086731,188.2052155 326.1745911,187.8007507 326.306427,187.4605865 C326.4382629,187.1204224 326.618103,186.8266296 326.8459778,186.5792389 C327.0575562,186.348114 327.3147278,186.1682739 327.6174622,186.0396881 C327.9201965,185.9111023 328.2213135,185.846817 328.5207825,185.846817 C328.8365479,185.846817 329.1010132,185.8785553 329.3142395,185.9420319 C329.5274658,186.0055084 329.7528687,186.102356 329.990509,186.2325592 L330.0491028,185.9981842 L330.9084778,185.9981842 Z M329.990509,189.9532623 L329.990509,186.9796295 C329.7463684,186.8689575 329.5193176,186.7900085 329.3093567,186.7428131 C329.0993958,186.6956177 328.8902588,186.6720123 328.6819153,186.6720123 C328.1773682,186.6720123 327.7802124,186.8412781 327.490509,187.1798248 C327.2008057,187.5183716 327.0559387,188.009903 327.0559387,188.6544342 C327.0559387,189.2664185 327.1633606,189.7302856 327.3782043,190.0460358 C327.5930481,190.3617859 327.9494934,190.5196686 328.4475403,190.5196686 C328.7144775,190.5196686 328.9822083,190.468399 329.2507629,190.36586 C329.5193176,190.2633209 329.7658997,190.1257935 329.990509,189.9532623 Z M337.1330872,188.7276764 C337.1330872,189.6163483 336.9052124,190.3178406 336.4494934,190.8321686 C335.9937744,191.3464966 335.3834229,191.603653 334.6184387,191.603653 C333.8469543,191.603653 333.2341614,191.3464966 332.7800598,190.8321686 C332.3259583,190.3178406 332.0989075,189.6163483 332.0989075,188.7276764 C332.0989075,187.8390045 332.3259583,187.1366882 332.7800598,186.6207428 C333.2341614,186.1047974 333.8469543,185.846817 334.6184387,185.846817 C335.3834229,185.846817 335.9937744,186.1047974 336.4494934,186.6207428 C336.9052124,187.1366882 337.1330872,187.8390045 337.1330872,188.7276764 Z M336.1858215,188.7276764 C336.1858215,188.0213013 336.0474854,187.4963989 335.7707825,187.1529694 C335.4940796,186.8095398 335.1099854,186.6378326 334.6184387,186.6378326 C334.1203918,186.6378326 333.7338257,186.8095398 333.4587708,187.1529694 C333.1837158,187.4963989 333.0461731,188.0213013 333.0461731,188.7276764 C333.0461731,189.4112701 333.1845093,189.929657 333.4612122,190.2828522 C333.737915,190.6360474 334.1236572,190.8126373 334.6184387,190.8126373 C335.10672,190.8126373 335.4900208,190.6376648 335.7683411,190.287735 C336.0466614,189.9378052 336.1858215,189.4177856 336.1858215,188.7276764 Z M339.412384,191.4522858 L338.4944153,191.4522858 L338.4944153,183.8546295 L339.412384,183.8546295 Z M345.7229309,191.4522858 L344.809845,191.4522858 L344.809845,190.8712311 C344.7284546,190.9265747 344.6185913,191.0038757 344.4802551,191.1031647 C344.3419189,191.2024536 344.2076416,191.2813873 344.0774231,191.3399811 C343.9244385,191.414856 343.7486572,191.4775085 343.5500793,191.5279694 C343.3515015,191.5784302 343.1187744,191.603653 342.8518372,191.603653 C342.3602905,191.603653 341.943634,191.4408875 341.6018372,191.1153717 C341.2600403,190.789856 341.0891418,190.3748169 341.0891418,189.8702545 C341.0891418,189.4568481 341.1778564,189.1223755 341.3552551,188.8668365 C341.5326538,188.6112976 341.7857666,188.4102936 342.1145325,188.2638092 C342.4465637,188.1173248 342.8453369,188.0180359 343.3108215,187.9659576 C343.7763062,187.9138794 344.276001,187.8748169 344.809845,187.8487701 L344.809845,187.7071686 C344.809845,187.4988403 344.7732239,187.3263092 344.6999817,187.1895905 C344.6267395,187.0528717 344.521759,186.9454498 344.3850403,186.8673248 C344.2548218,186.79245 344.0985718,186.7420044 343.9162903,186.7159576 C343.7340088,186.6899109 343.5435791,186.6768951 343.3450012,186.6768951 C343.104126,186.6768951 342.8355713,186.7086334 342.5393372,186.77211 C342.243103,186.8355865 341.9371338,186.9275513 341.6213684,187.0479889 L341.5725403,187.0479889 L341.5725403,186.1153717 C341.7515869,186.0665436 342.010376,186.0128326 342.3489075,185.9542389 C342.687439,185.8956451 343.0211182,185.8663483 343.349884,185.8663483 C343.7340088,185.8663483 344.0684814,185.8980865 344.353302,185.9615631 C344.6381226,186.0250397 344.8847046,186.1332703 345.0930481,186.2862701 C345.2981262,186.4360046 345.4543762,186.6296997 345.5617981,186.8673248 C345.66922,187.10495 345.7229309,187.3995514 345.7229309,187.7511139 Z M344.809845,190.1095123 L344.809845,188.5909576 C344.5299072,188.6072388 344.2003174,188.6316528 343.8210754,188.6641998 C343.4418335,188.6967468 343.1415405,188.7439575 342.9201965,188.8058014 C342.6565247,188.8806763 342.4432983,188.9970398 342.2805481,189.1549225 C342.1177979,189.3128052 342.0364075,189.5300903 342.0364075,189.806778 C342.0364075,190.119278 342.1307983,190.3544617 342.3196106,190.5123444 C342.5084229,190.6702271 342.7965088,190.7491608 343.1838684,190.7491608 C343.506134,190.7491608 343.8007202,190.6864929 344.0676575,190.5611725 C344.3345947,190.4358521 344.5819702,190.2852936 344.809845,190.1095123 Z M352.0451965,191.4522858 L351.1272278,191.4522858 L351.1272278,188.346817 C351.1272278,188.0961609 351.1125793,187.8609772 351.0832825,187.6412506 C351.0539856,187.421524 351.0002747,187.2498169 350.9221497,187.1261139 C350.8407593,186.9893951 350.7235718,186.8876648 350.5705872,186.8209381 C350.4176025,186.7542114 350.2190247,186.7208405 349.974884,186.7208405 C349.7242432,186.7208405 349.4621887,186.7826843 349.1887512,186.9063873 C348.9153137,187.0300903 348.6532593,187.1879578 348.4026184,187.3800201 L348.4026184,191.4522858 L347.4846497,191.4522858 L347.4846497,185.9981842 L348.4026184,185.9981842 L348.4026184,186.603653 C348.6890869,186.3660278 348.9852905,186.180481 349.2912903,186.0470123 C349.59729,185.9135437 349.9114075,185.846817 350.2336731,185.846817 C350.822876,185.846817 351.2720947,186.024231 351.5813293,186.3790436 C351.890564,186.7338562 352.0451965,187.2449341 352.0451965,187.9122467 Z M357.9084778,190.8321686 C357.9084778,191.7566528 357.6985168,192.4353638 357.278595,192.8683014 C356.8586731,193.301239 356.2125244,193.5177155 355.3401184,193.5177155 C355.050415,193.5177155 354.7680054,193.4973755 354.4929504,193.4566803 C354.2178955,193.4159851 353.9468994,193.3582153 353.6799622,193.2833405 L353.6799622,192.3458405 L353.7287903,192.3458405 C353.87854,192.4044342 354.1161499,192.4768677 354.4416809,192.5631256 C354.7672119,192.6493835 355.0927124,192.6925201 355.4182434,192.6925201 C355.7307434,192.6925201 355.9895325,192.6550903 356.1946106,192.5802155 C356.3996887,192.5053406 356.5592041,192.4011841 356.6731262,192.2677155 C356.7870483,192.1407623 356.8684387,191.9877625 356.9172668,191.8087311 C356.966095,191.6296997 356.990509,191.4295044 356.990509,191.2081451 L356.990509,190.7100983 C356.7138062,190.9314575 356.4493408,191.0966492 356.197052,191.2057037 C355.9447632,191.3147583 355.6233215,191.369278 355.2326965,191.369278 C354.581665,191.369278 354.0648804,191.1340942 353.6824036,190.6637115 C353.2999268,190.1933289 353.1086731,189.5300903 353.1086731,188.6739655 C353.1086731,188.2052155 353.1745911,187.8007507 353.306427,187.4605865 C353.4382629,187.1204224 353.618103,186.8266296 353.8459778,186.5792389 C354.0575562,186.348114 354.3147278,186.1682739 354.6174622,186.0396881 C354.9201965,185.9111023 355.2213135,185.846817 355.5207825,185.846817 C355.8365479,185.846817 356.1010132,185.8785553 356.3142395,185.9420319 C356.5274658,186.0055084 356.7528687,186.102356 356.990509,186.2325592 L357.0491028,185.9981842 L357.9084778,185.9981842 Z M356.990509,189.9532623 L356.990509,186.9796295 C356.7463684,186.8689575 356.5193176,186.7900085 356.3093567,186.7428131 C356.0993958,186.6956177 355.8902588,186.6720123 355.6819153,186.6720123 C355.1773682,186.6720123 354.7802124,186.8412781 354.490509,187.1798248 C354.2008057,187.5183716 354.0559387,188.009903 354.0559387,188.6544342 C354.0559387,189.2664185 354.1633606,189.7302856 354.3782043,190.0460358 C354.5930481,190.3617859 354.9494934,190.5196686 355.4475403,190.5196686 C355.7144775,190.5196686 355.9822083,190.468399 356.2507629,190.36586 C356.5193176,190.2633209 356.7658997,190.1257935 356.990509,189.9532623 Z M359.7313232,183.4822845 L359.241333,183.9522858 C360.0013428,184.5022888 360.6013184,185.0222778 361.0413208,185.5022888 L361.5313416,185.0122833 C361.0413208,184.5122833 360.4413147,184.0022888 359.7313232,183.4822845 Z M359.5513306,185.9322815 L359.0613403,186.4022827 C359.7813416,186.9322815 360.3313293,187.4322815 360.7313232,187.9022827 L361.221344,187.4122925 C360.7713318,186.922287 360.2113342,186.4322815 359.5513306,185.9322815 Z M360.7113342,188.6322937 C360.2813416,189.8222809 359.7713318,190.9822845 359.1713257,192.1222839 L359.8413391,192.422287 C360.3913269,191.3122864 360.8913269,190.1322937 361.3313293,188.8722839 L360.7113342,188.6322937 Z M363.3913269,185.2722778 L363.3913269,188.7822876 L365.1013184,188.7822876 L365.1013184,191.4422913 C365.1013184,191.6922913 364.9813232,191.8222809 364.761322,191.8222809 C364.5213318,191.8222809 364.2713318,191.8022766 364.011322,191.7722778 L364.1613159,192.422287 L365.0013428,192.422287 C365.5213318,192.422287 365.7913208,192.1522827 365.7913208,191.6122894 L365.7913208,188.7822876 L367.4513245,188.7822876 L367.4513245,185.2722778 L365.5013428,185.2722778 C365.6113281,184.97229 365.7013245,184.6622925 365.7713318,184.3322906 L367.9813232,184.3322906 L367.9813232,183.6822815 L361.9813232,183.6822815 L361.9813232,187.2422791 C361.9513245,189.2622833 361.6213379,190.8322906 361.0013428,191.9622803 L361.5413208,192.4422913 C362.261322,191.1422882 362.6413269,189.4022827 362.6813354,187.2422791 L362.6813354,184.3322906 L365.0913391,184.3322906 C365.0213318,184.6522827 364.9313354,184.9622803 364.8113403,185.2722778 L363.3913269,185.2722778 Z M366.8113403,188.2022858 L364.0313416,188.2022858 L364.0313416,187.3022766 L366.8113403,187.3022766 L366.8113403,188.2022858 Z M364.0313416,186.7622833 L364.0313416,185.8422852 L366.8113403,185.8422852 L366.8113403,186.7622833 L364.0313416,186.7622833 Z M363.6413269,189.4922791 C363.4313354,190.2522888 363.0913391,190.9422913 362.6213379,191.5722809 L363.2013245,191.9322815 C363.6613159,191.2822876 364.0213318,190.5122833 364.2813416,189.6322937 L363.6413269,189.4922791 Z M367.0413208,189.4422913 L366.4413147,189.6522827 C366.8213196,190.3122864 367.1813354,191.0622864 367.5013428,191.922287 L368.1113281,191.6522827 C367.8113403,190.8722839 367.4513245,190.1322937 367.0413208,189.4422913 Z M372.3613281,186.7922821 L370.5213318,186.7922821 C370.7813416,186.0922852 370.971344,185.3422852 371.1113281,184.5422821 L372.6213379,184.5422821 L372.6213379,183.8422852 L369.2113342,183.8422852 L369.2113342,184.5422821 L370.4313354,184.5422821 C370.1913147,186.0322876 369.6913147,187.3622894 368.9313354,188.5222778 L369.2913208,189.1022949 C369.5313416,188.7622833 369.7513428,188.4122925 369.9513245,188.0522766 L369.9513245,192.1222839 L370.6213379,192.1222839 L370.6213379,191.3622894 L371.7013245,191.3622894 L371.7013245,191.9322815 L372.3613281,191.9322815 L372.3613281,186.7922821 Z M370.6213379,190.7122803 L370.6213379,187.4522858 L371.7013245,187.4522858 L371.7013245,190.7122803 L370.6213379,190.7122803 Z M373.7113342,185.0822906 L373.1713257,188.3222809 L377.2113342,188.3222809 C377.2113342,189.922287 377.1313171,190.8922882 376.971344,191.2322845 C376.8213196,191.5522766 376.3613281,191.72229 375.5913391,191.72229 C375.4113159,191.72229 375.1013184,191.7022858 374.6613159,191.6622925 L374.8613281,192.3622894 C375.1813354,192.3822937 375.4813232,192.3922882 375.761322,192.3922882 C376.6413269,192.3922882 377.2113342,192.2022858 377.491333,191.8422852 C377.7513428,191.4622803 377.8913269,190.0722809 377.8913269,187.6522827 L376.8313293,187.6522827 L377.3813171,183.7022858 L373.0813293,183.7022858 L373.0813293,184.3822937 L376.6013184,184.3822937 L376.1013184,187.6522827 L373.9813232,187.6522827 L374.4213257,185.1322937 L373.7113342,185.0822906 Z M372.8613281,189.5922852 L372.8613281,190.2722778 L376.5213318,190.2722778 L376.5213318,189.5922852 L372.8613281,189.5922852 Z M378.5813293,191.4522858" style="fill:rgb(82,35,83);stroke:none" clip-path="url(#clip27)" />
<clipPath id="clip28"><path d="M150,234 L302,234 L302,272 L150,272 L150,234 Z" /></clipPath>
<path d="M156,235 C153.2385712,235 151,237.2385712 151,240 L151,265 C151,267.7614136 153.2385712,270 156,270 L295,270 C297.7614136,270 300,267.7614136 300,265 L300,240 C300,237.2385712 297.7614136,235 295,235 Z M156,235" style="fill:rgb(83,81,134);stroke:none" clip-path="url(#clip28)" />
<clipPath id="clip29"><path d="M164,241 L288,241 L288,265 L164,265 L164,241 Z" /></clipPath>
<path d="M172.1210938,260.609375 L168.0585938,260.609375 L168.0585938,245.390625 L172.1210938,245.390625 L172.1210938,246.5078125 L169.4179688,246.5078125 L169.4179688,259.4921875 L172.1210938,259.4921875 Z M181.3007813,251.9453125 C181.5507813,252.169281 181.7565002,252.4505157 181.9179688,252.7890625 C182.0794373,253.1276093 182.1601563,253.565094 182.1601563,254.1015625 C182.1601563,254.6328125 182.0638123,255.1197815 181.8710938,255.5625 C181.6783752,256.0052185 181.4075623,256.390625 181.0585938,256.71875 C180.6679688,257.0833435 180.2083435,257.3528748 179.6796875,257.5273438 C179.1510315,257.7018127 178.5716248,257.7890625 177.9414063,257.7890625 C177.2955627,257.7890625 176.6601563,257.7122498 176.0351563,257.5585938 C175.4101563,257.4049377 174.8971405,257.236969 174.4960938,257.0546875 L174.4960938,255.421875 L174.6132813,255.421875 C175.0559998,255.7135468 175.5768127,255.955719 176.1757813,256.1484375 C176.7747498,256.341156 177.3528595,256.4375 177.9101563,256.4375 C178.2382813,256.4375 178.5872345,256.3828125 178.9570313,256.2734375 C179.326828,256.1640625 179.6263123,256.002594 179.8554688,255.7890625 C180.0950623,255.559906 180.2734375,255.3072968 180.390625,255.03125 C180.5078125,254.7552032 180.5664063,254.40625 180.5664063,253.984375 C180.5664063,253.5677032 180.5,253.2226563 180.3671875,252.9492188 C180.234375,252.6757813 180.0507813,252.4609375 179.8164063,252.3046875 C179.5820313,252.143219 179.2981873,252.0325623 178.9648438,251.9726563 C178.6315002,251.9127502 178.2721405,251.8828125 177.8867188,251.8828125 L177.1835938,251.8828125 L177.1835938,250.5859375 L177.7304688,250.5859375 C178.5221405,250.5859375 179.1536407,250.420578 179.625,250.0898438 C180.0963593,249.7591095 180.3320313,249.2760468 180.3320313,248.640625 C180.3320313,248.359375 180.2721252,248.1132813 180.1523438,247.9023438 C180.0325623,247.6914063 179.8658752,247.518219 179.6523438,247.3828125 C179.4283752,247.247406 179.1888123,247.153656 178.9335938,247.1015625 C178.6783752,247.049469 178.389328,247.0234375 178.0664063,247.0234375 C177.5716095,247.0234375 177.045578,247.111969 176.4882813,247.2890625 C175.9309845,247.466156 175.404953,247.7161407 174.9101563,248.0390625 L174.8320313,248.0390625 L174.8320313,246.40625 C175.201828,246.2239685 175.6953125,246.0559998 176.3125,245.9023438 C176.9296875,245.7486877 177.5273438,245.671875 178.1054688,245.671875 C178.6731873,245.671875 179.173172,245.7239685 179.6054688,245.828125 C180.0377655,245.9322815 180.4283752,246.0989685 180.7773438,246.328125 C181.1523438,246.578125 181.4361877,246.8802032 181.6289063,247.234375 C181.8216248,247.5885468 181.9179688,248.002594 181.9179688,248.4765625 C181.9179688,249.122406 181.6901093,249.6861877 181.234375,250.1679688 C180.7786407,250.6497498 180.2408905,250.953125 179.6210938,251.078125 L179.6210938,251.1875 C179.8710938,251.2291565 180.157547,251.3164063 180.4804688,251.4492188 C180.8033905,251.5820313 181.0768127,251.747406 181.3007813,251.9453125 Z M192.3085938,251.7265625 C192.3085938,253.8151245 191.981781,255.3476563 191.328125,256.3242188 C190.674469,257.3007813 189.6601563,257.7890625 188.2851563,257.7890625 C186.8893127,257.7890625 185.8697968,257.294281 185.2265625,256.3046875 C184.5833282,255.315094 184.2617188,253.794281 184.2617188,251.7421875 C184.2617188,249.674469 184.5872345,248.1471405 185.2382813,247.1601563 C185.889328,246.173172 186.9049377,245.6796875 188.2851563,245.6796875 C189.6809998,245.6796875 190.7005157,246.1809845 191.34375,247.1835938 C191.9869843,248.186203 192.3085938,249.7005005 192.3085938,251.7265625 Z M190.2539063,255.2734375 C190.4361877,254.8515625 190.559906,254.3554688 190.625,253.7851563 C190.690094,253.2148438 190.7226563,252.528656 190.7226563,251.7265625 C190.7226563,250.9348907 190.690094,250.247406 190.625,249.6640625 C190.559906,249.080719 190.4335938,248.5859375 190.2460938,248.1796875 C190.0638123,247.7786407 189.8151093,247.4765625 189.5,247.2734375 C189.1848907,247.0703125 188.779953,246.96875 188.2851563,246.96875 C187.7955627,246.96875 187.390625,247.0703125 187.0703125,247.2734375 C186.75,247.4765625 186.4960938,247.783844 186.3085938,248.1953125 C186.1315002,248.5807343 186.0104065,249.0833282 185.9453125,249.703125 C185.8802185,250.3229218 185.8476563,251.002594 185.8476563,251.7421875 C185.8476563,252.5546875 185.8763123,253.234375 185.9335938,253.78125 C185.9908752,254.328125 186.1132813,254.8177032 186.3007813,255.25 C186.4726563,255.65625 186.7161407,255.966156 187.03125,256.1796875 C187.3463593,256.393219 187.7643127,256.5 188.2851563,256.5 C188.7747498,256.5 189.1809845,256.3984375 189.5039063,256.1953125 C189.826828,255.9921875 190.0768127,255.684906 190.2539063,255.2734375 Z M202.3085938,251.7265625 C202.3085938,253.8151245 201.981781,255.3476563 201.328125,256.3242188 C200.674469,257.3007813 199.6601563,257.7890625 198.2851563,257.7890625 C196.8893127,257.7890625 195.8697968,257.294281 195.2265625,256.3046875 C194.5833282,255.315094 194.2617188,253.794281 194.2617188,251.7421875 C194.2617188,249.674469 194.5872345,248.1471405 195.2382813,247.1601563 C195.889328,246.173172 196.9049377,245.6796875 198.2851563,245.6796875 C199.6809998,245.6796875 200.7005157,246.1809845 201.34375,247.1835938 C201.9869843,248.186203 202.3085938,249.7005005 202.3085938,251.7265625 Z M200.2539063,255.2734375 C200.4361877,254.8515625 200.559906,254.3554688 200.625,253.7851563 C200.690094,253.2148438 200.7226563,252.528656 200.7226563,251.7265625 C200.7226563,250.9348907 200.690094,250.247406 200.625,249.6640625 C200.559906,249.080719 200.4335938,248.5859375 200.2460938,248.1796875 C200.0638123,247.7786407 199.8151093,247.4765625 199.5,247.2734375 C199.1848907,247.0703125 198.779953,246.96875 198.2851563,246.96875 C197.7955627,246.96875 197.390625,247.0703125 197.0703125,247.2734375 C196.75,247.4765625 196.4960938,247.783844 196.3085938,248.1953125 C196.1315002,248.5807343 196.0104065,249.0833282 195.9453125,249.703125 C195.8802185,250.3229218 195.8476563,251.002594 195.8476563,251.7421875 C195.8476563,252.5546875 195.8763123,253.234375 195.9335938,253.78125 C195.9908752,254.328125 196.1132813,254.8177032 196.3007813,255.25 C196.4726563,255.65625 196.7161407,255.966156 197.03125,256.1796875 C197.3463593,256.393219 197.7643127,256.5 198.2851563,256.5 C198.7747498,256.5 199.1809845,256.3984375 199.5039063,256.1953125 C199.826828,255.9921875 200.0768127,255.684906 200.2539063,255.2734375 Z M208.5898438,260.609375 L204.5273438,260.609375 L204.5273438,259.4921875 L207.2304688,259.4921875 L207.2304688,246.5078125 L204.5273438,246.5078125 L204.5273438,245.390625 L208.5898438,245.390625 Z M219.1210938,257.546875 L217.6523438,257.546875 L217.6523438,245.390625 L219.1210938,245.390625 Z M228.9414063,253.3359375 L222.5117188,253.3359375 C222.5117188,253.872406 222.592453,254.3398438 222.7539063,254.7382813 C222.9153595,255.1367188 223.1367188,255.4635315 223.4179688,255.71875 C223.688797,255.96875 224.0104218,256.15625 224.3828125,256.28125 C224.7552032,256.40625 225.1653595,256.46875 225.6132813,256.46875 C226.2070313,256.46875 226.8046875,256.3502502 227.40625,256.1132813 C228.0078125,255.8763123 228.436203,255.643219 228.6914063,255.4140625 L228.7695313,255.4140625 L228.7695313,257.015625 C228.2747345,257.2239685 227.7695313,257.3984375 227.2539063,257.5390625 C226.7382813,257.6796875 226.1966248,257.75 225.6289063,257.75 C224.1809845,257.75 223.0507813,257.3580933 222.2382813,256.5742188 C221.4257813,255.7903595 221.0195313,254.6770935 221.0195313,253.234375 C221.0195313,251.8072815 221.408844,250.6744843 222.1875,249.8359375 C222.966156,248.9973907 223.9908752,248.578125 225.2617188,248.578125 C226.4388123,248.578125 227.346344,248.921875 227.984375,249.609375 C228.622406,250.296875 228.9414063,251.2734375 228.9414063,252.5390625 Z M227.5117188,252.2109375 C227.5065155,251.440094 227.3125,250.84375 226.9296875,250.421875 C226.546875,250 225.9648438,249.7890625 225.1835938,249.7890625 C224.3971252,249.7890625 223.7708282,250.0208282 223.3046875,250.484375 C222.8385468,250.9479218 222.5742188,251.5234375 222.5117188,252.2109375 Z M238.9414063,253.3359375 L232.5117188,253.3359375 C232.5117188,253.872406 232.592453,254.3398438 232.7539063,254.7382813 C232.9153595,255.1367188 233.1367188,255.4635315 233.4179688,255.71875 C233.688797,255.96875 234.0104218,256.15625 234.3828125,256.28125 C234.7552032,256.40625 235.1653595,256.46875 235.6132813,256.46875 C236.2070313,256.46875 236.8046875,256.3502502 237.40625,256.1132813 C238.0078125,255.8763123 238.436203,255.643219 238.6914063,255.4140625 L238.7695313,255.4140625 L238.7695313,257.015625 C238.2747345,257.2239685 237.7695313,257.3984375 237.2539063,257.5390625 C236.7382813,257.6796875 236.1966248,257.75 235.6289063,257.75 C234.1809845,257.75 233.0507813,257.3580933 232.2382813,256.5742188 C231.4257813,255.7903595 231.0195313,254.6770935 231.0195313,253.234375 C231.0195313,251.8072815 231.408844,250.6744843 232.1875,249.8359375 C232.966156,248.9973907 233.9908752,248.578125 235.2617188,248.578125 C236.4388123,248.578125 237.346344,248.921875 237.984375,249.609375 C238.622406,250.296875 238.9414063,251.2734375 238.9414063,252.5390625 Z M237.5117188,252.2109375 C237.5065155,251.440094 237.3125,250.84375 236.9296875,250.421875 C236.546875,250 235.9648438,249.7890625 235.1835938,249.7890625 C234.3971252,249.7890625 233.7708282,250.0208282 233.3046875,250.484375 C232.8385468,250.9479218 232.5742188,251.5234375 232.5117188,252.2109375 Z M246.1679688,257.46875 C245.891922,257.5416565 245.5911407,257.6015625 245.265625,257.6484375 C244.9401093,257.6953125 244.6497345,257.71875 244.3945313,257.71875 C243.5039063,257.71875 242.826828,257.479187 242.3632813,257 C241.8997345,256.520813 241.6679688,255.7526093 241.6679688,254.6953125 L241.6679688,250.0546875 L240.6757813,250.0546875 L240.6757813,248.8203125 L241.6679688,248.8203125 L241.6679688,246.3125 L243.1367188,246.3125 L243.1367188,248.8203125 L246.1679688,248.8203125 L246.1679688,250.0546875 L243.1367188,250.0546875 L243.1367188,254.03125 C243.1367188,254.4895935 243.1471405,254.8476563 243.1679688,255.1054688 C243.188797,255.3632813 243.2617188,255.6041565 243.3867188,255.828125 C243.501297,256.0364685 243.6588593,256.1888123 243.859375,256.2851563 C244.0598907,256.3815002 244.3658905,256.4296875 244.7773438,256.4296875 C245.016922,256.4296875 245.266922,256.3945313 245.5273438,256.3242188 C245.7877655,256.2539063 245.9752655,256.1953125 246.0898438,256.1484375 L246.1679688,256.1484375 Z M254.0898438,257 C253.6002655,257.234375 253.1354218,257.4166565 252.6953125,257.546875 C252.2552032,257.6770935 251.7877655,257.7421875 251.2929688,257.7421875 C250.6627502,257.7421875 250.0846405,257.6497498 249.5585938,257.4648438 C249.032547,257.2799377 248.5820313,257 248.2070313,256.625 C247.826828,256.25 247.532547,255.7760468 247.3242188,255.203125 C247.1158905,254.6302032 247.0117188,253.9609375 247.0117188,253.1953125 C247.0117188,251.768219 247.4036407,250.6484375 248.1875,249.8359375 C248.9713593,249.0234375 250.0065002,248.6171875 251.2929688,248.6171875 C251.7929688,248.6171875 252.2838593,248.6875 252.765625,248.828125 C253.2473907,248.96875 253.688797,249.140625 254.0898438,249.34375 L254.0898438,250.9765625 L254.0117188,250.9765625 C253.563797,250.627594 253.1015625,250.359375 252.625,250.171875 C252.1484375,249.984375 251.6835938,249.890625 251.2304688,249.890625 C250.3971252,249.890625 249.7395782,250.1705627 249.2578125,250.7304688 C248.7760468,251.2903748 248.5351563,252.111969 248.5351563,253.1953125 C248.5351563,254.247406 248.7708282,255.0559845 249.2421875,255.6210938 C249.7135468,256.1862183 250.376297,256.46875 251.2304688,256.46875 C251.5273438,256.46875 251.829422,256.4296875 252.1367188,256.3515625 C252.4440155,256.2734375 252.720047,256.171875 252.9648438,256.046875 C253.1783905,255.9375 253.3789063,255.8216248 253.5664063,255.6992188 C253.7539063,255.5768127 253.9023438,255.471344 254.0117188,255.3828125 L254.0898438,255.3828125 Z M263.0742188,253.1875 C263.0742188,254.609375 262.7096558,255.7317657 261.9804688,256.5546875 C261.2512817,257.3776245 260.2747498,257.7890625 259.0507813,257.7890625 C257.8164063,257.7890625 256.8359375,257.3776245 256.109375,256.5546875 C255.3828125,255.7317657 255.0195313,254.609375 255.0195313,253.1875 C255.0195313,251.765625 255.3828125,250.6419373 256.109375,249.8164063 C256.8359375,248.9908752 257.8164063,248.578125 259.0507813,248.578125 C260.2747498,248.578125 261.2512817,248.9908752 261.9804688,249.8164063 C262.7096558,250.6419373 263.0742188,251.765625 263.0742188,253.1875 Z M261.5585938,253.1875 C261.5585938,252.0572815 261.3372192,251.217453 260.8945313,250.6679688 C260.4518433,250.1184845 259.8372498,249.84375 259.0507813,249.84375 C258.2539063,249.84375 257.635437,250.1184845 257.1953125,250.6679688 C256.755188,251.217453 256.5351563,252.0572815 256.5351563,253.1875 C256.5351563,254.28125 256.7565308,255.110672 257.1992188,255.6757813 C257.6419067,256.2409058 258.2590942,256.5234375 259.0507813,256.5234375 C259.8320313,256.5234375 260.4453125,256.2434998 260.890625,255.6835938 C261.3359375,255.1236877 261.5585938,254.2916718 261.5585938,253.1875 Z M272.7148438,257.546875 L271.2460938,257.546875 L271.2460938,256.6328125 C270.8242188,256.997406 270.3840942,257.28125 269.9257813,257.484375 C269.4674683,257.6875 268.9700623,257.7890625 268.4335938,257.7890625 C267.3919067,257.7890625 266.5651245,257.388031 265.953125,256.5859375 C265.3411255,255.783844 265.0351563,254.671875 265.0351563,253.25 C265.0351563,252.5104065 265.140625,251.8515625 265.3515625,251.2734375 C265.5625,250.6953125 265.8476563,250.203125 266.2070313,249.796875 C266.5612183,249.4010315 266.973938,249.0989685 267.4453125,248.890625 C267.916687,248.6822815 268.4049683,248.578125 268.9101563,248.578125 C269.3684692,248.578125 269.7747192,248.6263123 270.1289063,248.7226563 C270.4830933,248.8190002 270.8554688,248.96875 271.2460938,249.171875 L271.2460938,245.390625 L272.7148438,245.390625 Z M271.2460938,255.3984375 L271.2460938,250.390625 C270.8502808,250.2135315 270.4960938,250.091156 270.1835938,250.0234375 C269.8710938,249.955719 269.5299683,249.921875 269.1601563,249.921875 C268.3372192,249.921875 267.6965942,250.2083282 267.2382813,250.78125 C266.7799683,251.3541718 266.5507813,252.1666565 266.5507813,253.21875 C266.5507813,254.2552185 266.7278442,255.0429688 267.0820313,255.5820313 C267.4362183,256.1210938 268.0039063,256.390625 268.7851563,256.390625 C269.2018433,256.390625 269.6237183,256.2981873 270.0507813,256.1132813 C270.4778442,255.9283752 270.8762817,255.6901093 271.2460938,255.3984375 Z M282.9414063,253.3359375 L276.5117188,253.3359375 C276.5117188,253.872406 276.5924683,254.3398438 276.7539063,254.7382813 C276.9153442,255.1367188 277.1367188,255.4635315 277.4179688,255.71875 C277.6887817,255.96875 278.010437,256.15625 278.3828125,256.28125 C278.755188,256.40625 279.1653442,256.46875 279.6132813,256.46875 C280.2070313,256.46875 280.8046875,256.3502502 281.40625,256.1132813 C282.0078125,255.8763123 282.4362183,255.643219 282.6914063,255.4140625 L282.7695313,255.4140625 L282.7695313,257.015625 C282.2747192,257.2239685 281.7695313,257.3984375 281.2539063,257.5390625 C280.7382813,257.6796875 280.1966248,257.75 279.6289063,257.75 C278.1809692,257.75 277.0507813,257.3580933 276.2382813,256.5742188 C275.4257813,255.7903595 275.0195313,254.6770935 275.0195313,253.234375 C275.0195313,251.8072815 275.408844,250.6744843 276.1875,249.8359375 C276.966156,248.9973907 277.9908752,248.578125 279.2617188,248.578125 C280.4388123,248.578125 281.346344,248.921875 281.984375,249.609375 C282.622406,250.296875 282.9414063,251.2734375 282.9414063,252.5390625 Z M281.5117188,252.2109375 C281.5065308,251.440094 281.3125,250.84375 280.9296875,250.421875 C280.546875,250 279.9648438,249.7890625 279.1835938,249.7890625 C278.3971252,249.7890625 277.770813,250.0208282 277.3046875,250.484375 C276.838562,250.9479218 276.5742188,251.5234375 276.5117188,252.2109375 Z M283.7226563,257.546875" style="fill:rgb(255,255,255);stroke:none" clip-path="url(#clip29)" />
</svg>
